<svg width="40" height="12" viewBox="0 0 40 12" fill="none" xmlns="http://www.w3.org/2000/svg">
<path id="siteA" d="M4.57501 11.14C7.29001 11.14 8.54999 9.88995 8.54999 8.06995C8.54999 4.04995 2.64001 5.54005 2.64001 3.30005C2.64001 2.61005 3.21 2.04004 4.56 2.04004C5.88 2.04004 6.37498 2.52997 6.47998 3.71997H8.40002C8.25002 1.46997 7.12501 0.359985 4.57501 0.359985C2.01001 0.359985 0.75 1.61004 0.75 3.29004C0.75 7.15004 6.65997 5.70004 6.65997 8.04004C6.65997 8.82004 6.01501 9.43994 4.57501 9.43994C3.19501 9.43994 2.62502 8.89997 2.52002 7.46997H0.599976C0.749976 9.95997 1.96501 11.14 4.57501 11.14ZM10.205 11H11.945V3.5H10.205V11ZM11.075 2.59998C11.69 2.59998 12.2 2.09997 12.2 1.46997C12.2 0.839971 11.69 0.349976 11.075 0.349976C10.445 0.349976 9.95001 0.839971 9.95001 1.46997C9.95001 2.09997 10.445 2.59998 11.075 2.59998ZM13.068 5.03003H14.418V8.52002C14.418 10.11 15.303 11 16.893 11H18.168V9.46997H17.208C16.503 9.46997 16.158 9.11997 16.158 8.33997V5.03003H18.018V3.5H16.158V1.40002H14.418V3.5H13.068V5.03003ZM22.448 11.14C24.548 11.14 25.598 10.08 25.898 8.67004H24.098C23.948 9.17004 23.513 9.59998 22.448 9.59998C21.383 9.59998 20.753 9.07996 20.663 7.82996H25.973V7.25C25.973 4.77 24.623 3.35999 22.448 3.35999C20.303 3.35999 18.923 4.74001 18.923 7.01001V7.48999C18.923 9.74999 20.303 11.14 22.448 11.14ZM22.448 4.89001C23.468 4.89001 24.068 5.33995 24.203 6.44995H20.693C20.843 5.36995 21.443 4.89001 22.448 4.89001ZM37.944 11H39.924L36.174 0.5H34.074L30.324 11H32.214L33.084 8.33997H37.059L37.944 11ZM34.374 4.45996L35.079 2.30005L35.784 4.45996L36.534 6.75H33.609L34.374 4.45996Z" fill="white"/>
</svg>
