<!-- верхушка станции -->

<svg width="114" height="159" viewBox="0 0 114 159" fill="none" xmlns="http://www.w3.org/2000/svg">
<path id="station-body"  d="M57 127.279V85.6484M57 1L43 38.5484L57 1ZM57 1L71 38.5484L57 1ZM57 1V85.6484V1ZM57 158V127.279V158ZM113 151.173L99 113.635L113 151.173ZM1 151.173L15 113.635L1 151.173ZM85 76.0864L71 38.5484L85 76.0864ZM85 76.0864L99 113.635L85 76.0864ZM85 76.0864L57 85.6484L85 76.0864ZM29 76.0864L43 38.5484L29 76.0864ZM29 76.0864L15 113.635L29 76.0864ZM29 76.0864L57 85.6484L29 76.0864ZM43 38.5484L57 44.0078L71 38.5484H43ZM15 113.635L57 127.279L15 113.635ZM99 113.635L57 127.279L99 113.635Z" stroke="#1D1D1D" stroke-linecap="round" stroke-linejoin="round"/>
</svg>